<svg width="38" height="32" viewBox="0 0 38 32" fill="none" xmlns="http://www.w3.org/2000/svg">
<path d="M29.4375 27.1012C26.6175 25.7262 25 22.7787 25 19.0012V16.8412C25.0011 16.4405 24.8813 16.0488 24.6563 15.7172C24.4313 15.3856 24.1115 15.1296 23.7388 14.9825L20.625 13.75C20.3801 13.652 20.1837 13.4612 20.0788 13.2191C19.9739 12.977 19.969 12.7032 20.065 12.4575L22.73 5.8325C22.9109 5.39767 23.0021 4.93082 22.9983 4.45989C22.9945 3.98897 22.8957 3.52366 22.7078 3.09183C22.5199 2.66 22.2467 2.27053 21.9048 1.94675C21.5628 1.62297 21.159 1.37153 20.7175 1.2075C19.8577 0.892453 18.9089 0.92514 18.0728 1.29861C17.2367 1.67208 16.5792 2.35689 16.24 3.2075C16.2395 3.21249 16.2395 3.21751 16.24 3.2225L13.6125 9.875C13.5148 10.1211 13.3235 10.3184 13.0804 10.4236C12.8374 10.5289 12.5626 10.5334 12.3163 10.4362L9.13878 9.1425C8.77242 8.99405 8.3701 8.95828 7.98331 9.03978C7.59651 9.12128 7.24283 9.31634 6.96753 9.6C4.33503 12.3062 3.00003 15.4687 3.00003 19C2.99311 22.6136 4.39061 26.0886 6.89753 28.6912C6.99145 28.7894 7.1044 28.8675 7.22948 28.9205C7.35456 28.9736 7.48915 29.0007 7.62503 29H29C29.226 28.9998 29.4453 28.923 29.6221 28.7822C29.7989 28.6413 29.9228 28.4448 29.9735 28.2245C30.0243 28.0043 29.9989 27.7733 29.9016 27.5693C29.8042 27.3653 29.6407 27.2004 29.4375 27.1012ZM8.39253 11L11.5688 12.2875C11.9354 12.4342 12.3274 12.507 12.7223 12.5019C13.1171 12.4967 13.5071 12.4137 13.8698 12.2575C14.2324 12.1013 14.5607 11.875 14.8358 11.5916C15.1108 11.3083 15.3272 10.9734 15.4725 10.6062L18.0975 3.98125C18.4175 3.2175 19.2813 2.8225 20.0263 3.10625C20.2162 3.17672 20.3899 3.28493 20.5369 3.42437C20.6838 3.5638 20.801 3.73155 20.8814 3.91752C20.9618 4.10348 21.0036 4.3038 21.0045 4.50639C21.0053 4.70897 20.9651 4.90963 20.8863 5.09625L18.2113 11.72C17.9184 12.4588 17.9307 13.2837 18.2454 14.0135C18.5602 14.7433 19.1517 15.3184 19.89 15.6125L23 16.8412V19C23 19.0412 23 19.0825 23 19.125L6.97128 12.7137C7.39741 12.1046 7.87275 11.5315 8.39253 11ZM14.3925 27C12.9037 25.5718 11.8489 23.7518 11.35 21.75C11.2805 21.4968 11.1142 21.2811 10.887 21.1495C10.6598 21.0179 10.3899 20.9809 10.1357 21.0466C9.88147 21.1122 9.66326 21.2752 9.52819 21.5004C9.39312 21.7255 9.35202 21.9948 9.41378 22.25C9.84994 23.9721 10.6307 25.588 11.7088 27H8.05503C6.08276 24.8027 4.99439 21.9526 5.00003 19C4.98779 17.4356 5.31757 15.8874 5.96628 14.4637L23.1913 21.3537C23.5663 23.6037 24.5113 25.5387 25.9275 26.9987L14.3925 27Z" fill="white"/>
<path d="M37.7421 3.51816L23.6627 17.7393C23.581 17.822 23.484 17.8875 23.3771 17.9322C23.2703 17.977 23.1558 18 23.0402 18C22.9245 18 22.81 17.977 22.7032 17.9322C22.5964 17.8875 22.4993 17.822 22.4176 17.7393L16.2579 11.5176C16.0928 11.3508 16 11.1246 16 10.8887C16 10.6529 16.0928 10.4267 16.2579 10.2599C16.423 10.0931 16.6469 9.9994 16.8805 9.9994C17.114 9.9994 17.3379 10.0931 17.503 10.2599L23.0402 15.8539L36.497 2.26047C36.6621 2.0937 36.886 2 37.1195 2C37.3531 2 37.577 2.0937 37.7421 2.26047C37.9072 2.42725 38 2.65346 38 2.88932C38 3.12518 37.9072 3.35138 37.7421 3.51816Z" fill="#3AFF12"/>
</svg>
